# xmcd
#
# Track frame offsets: 
#        150
#        10242
#        23833
#        34012
#        46821
#        57026
#        67221
#        79613
#        89941
#        100763
#        114609
#        127502
#
# Disc length: 1855 seconds
#
# Revision: 0
# Processed by: cddbd v1.5.2PL0 Copyright (c) Steve Scherf et al.
# Submitted via: ExactAudioCopy v1.0b1
#
DISCID=92073d0c
DTITLE=Otis Redding - Love Man
DYEAR=1969
DGENRE=R&B
TTITLE0=I'm A Changed Man
TTITLE1=(Your Love Has Lifted Me) Higher And Higher
TTITLE2=That's A Good Idea
TTITLE3=I'll Let Nothing Separate Us
TTITLE4=Direct Me
TTITLE5=Love Man
TTITLE6=Groovin' Time
TTITLE7=Your Feeling Is Mine
TTITLE8=Got To Get Myself Together
TTITLE9=Free Me
TTITLE10=A Lover's Question
TTITLE11=Look At That Girl
EXTD=
EXTT0=
EXTT1=
EXTT2=
EXTT3=
EXTT4=
EXTT5=
EXTT6=
EXTT7=
EXTT8=
EXTT9=
EXTT10=
EXTT11=
PLAYORDER=
